# xmcd CD database file
#
# Track frame offsets:
#	150
#	13295
#	26000
#	38852
#	62365
#	77955
#	96260
#	112960
#	142255
#	156417
#	171897
#
# Disc length: 2655 seconds
#
# Revision: 0
# Processed by: cddbd v1.4PL0 Copyright (c) Steve Scherf et al.
# Submitted via: CDex 1.50beta10
#
DISCID=940a5d0b
DTITLE=Sam Lay Blues Band - Shuffle Master
DYEAR=1992
DGENRE=Blues
TTITLE0=Both Sides of the Fence
TTITLE1=Mojo Hand
TTITLE2=Sam Lay Shuffle
TTITLE3=Poison Ivey
TTITLE4=I'm the One
TTITLE5=Alabama Crawl
TTITLE6=Don't Mess With Me Baby
TTITLE7=Eight Feet Baby
TTITLE8=Ride 'Em on Down
TTITLE9=River City's Jumpin'
TTITLE10=Red Line
EXTD=YEAR: 1992
EXTT0=
EXTT1=
EXTT2=
EXTT3=
EXTT4=
EXTT5=
EXTT6=
EXTT7=
EXTT8=
EXTT9=
EXTT10=
PLAYORDER=
